<svg xmlns="http://www.w3.org/2000/svg" xmlns:xlink="http://www.w3.org/1999/xlink" id="Layer_1" x="0px" y="0px" viewBox="0 0 120 106.8" style="enable-background:new 0 0 120 106.8;" xml:space="preserve"><style type="text/css">	.st0{fill:#363636;}	.st1{fill:#00CA38;}</style><g>	<g>		<path class="st0" d="M60.3,73c-10.8,0-19.6-8.8-19.6-19.6c0-10.8,8.8-19.6,19.6-19.6s19.6,8.8,19.6,19.6   C79.9,64.2,71.1,73,60.3,73z M60.3,37.9c-8.5,0-15.5,6.9-15.5,15.5s6.9,15.5,15.5,15.5s15.5-6.9,15.5-15.5S68.8,37.9,60.3,37.9z"></path>	</g>	<path class="st0" d="M98.5,63.2V43.6c0-0.3-0.3-0.6-0.6-0.6h-7.4c-0.3,0-0.5-0.2-0.6-0.4c-0.3-0.8-0.6-1.7-1-2.5  c-0.1-0.2-0.1-0.5,0.1-0.7l5.2-5.2c0.2-0.2,0.2-0.6,0-0.9L80.4,19.4c-0.2-0.2-0.6-0.2-0.9,0l-5.2,5.2c-0.2,0.2-0.5,0.2-0.7,0.1  c-0.8-0.4-1.6-0.7-2.5-1c-0.2-0.1-0.4-0.3-0.4-0.6v-7.4c0-0.3-0.3-0.6-0.6-0.6H50.5c-0.3,0-0.6,0.3-0.6,0.6v7.4  c0,0.3-0.2,0.5-0.4,0.6c-0.8,0.3-1.7,0.6-2.5,1c-0.2,0.1-0.5,0.1-0.7-0.1L41,19.4c-0.2-0.2-0.6-0.2-0.9,0L26.3,33.3  c-0.2,0.2-0.2,0.6,0,0.9l5.2,5.2c0.2,0.2,0.2,0.5,0.1,0.7c-0.4,0.8-0.7,1.6-1,2.5C30.5,42.8,30.3,43,30,43h-7.4  c-0.3,0-0.6,0.3-0.6,0.6v19.6c0,0.3,0.3,0.6,0.6,0.6H30c0.3,0,0.5,0.2,0.6,0.4c0.3,0.8,0.6,1.7,1,2.5c0.1,0.2,0.1,0.5-0.1,0.7  l-5.2,5.2c-0.2,0.2-0.2,0.6,0,0.9l13.9,13.9c0.2,0.2,0.6,0.2,0.9,0l5.2-5.2c0.2-0.2,0.5-0.2,0.7-0.1c0.8,0.4,1.6,0.7,2.5,1  c0.2,0.1,0.4,0.3,0.4,0.6V91c0,0.3,0.3,0.6,0.6,0.6h19.6c0.3,0,0.6-0.3,0.6-0.6v-7.4c0-0.3,0.2-0.5,0.4-0.6c0.8-0.3,1.7-0.6,2.5-1  c0.2-0.1,0.5-0.1,0.7,0.1l5.2,5.2c0.2,0.2,0.6,0.2,0.9,0l13.9-13.9c0.2-0.2,0.2-0.6,0-0.9L89,67.4c-0.2-0.2-0.2-0.5-0.1-0.7  c0.4-0.8,0.7-1.6,1-2.5c0.1-0.2,0.3-0.4,0.6-0.4h7.4C98.2,63.8,98.5,63.5,98.5,63.2z M80.4,81.7c-0.2,0.2-0.6,0.2-0.9,0l-1.9-1.9  c0,0,0,0,0,0L75,77.2c-0.2-0.2-0.5-0.2-0.7-0.1c-2.2,1.3-4.6,2.3-7.1,3c-0.3,0.1-0.5,0.3-0.5,0.6v1.6v2V87c0,0.3-0.3,0.6-0.6,0.6  H54.5c-0.3,0-0.6-0.3-0.6-0.6v-2.7v-2v-1.6c0-0.3-0.2-0.5-0.5-0.6c-2.5-0.7-4.9-1.7-7.1-3C46,77,45.7,77,45.5,77.2L43,79.8l0,0  L41,81.7c-0.2,0.2-0.6,0.2-0.9,0l-8.2-8.2c-0.2-0.2-0.2-0.6,0-0.9l3.4-3.4l0,0l1.1-1.1c0.2-0.2,0.2-0.5,0.1-0.7  c-1.3-2.2-2.3-4.6-3-7.1c-0.1-0.3-0.3-0.5-0.6-0.5h-1.6c0,0,0,0,0,0h-4.8c-0.3,0-0.6-0.3-0.6-0.6V47.6c0-0.3,0.3-0.6,0.6-0.6h4.8  c0,0,0,0,0,0H33c0.3,0,0.5-0.2,0.6-0.5c0.7-2.5,1.7-4.9,3-7.1c0.1-0.2,0.1-0.5-0.1-0.7l-2.6-2.6c0,0,0,0,0,0l-1.9-1.9  c-0.2-0.2-0.2-0.6,0-0.9l8.2-8.2c0.2-0.2,0.6-0.2,0.9,0l3.4,3.4c0,0,0,0,0,0l1.1,1.1c0.2,0.2,0.5,0.2,0.7,0.1  c2.2-1.3,4.6-2.3,7.1-3c0.3-0.1,0.5-0.3,0.5-0.6v-1.6v-2v-2.7c0-0.3,0.3-0.6,0.6-0.6h11.6c0.3,0,0.6,0.3,0.6,0.6v2.7v2v1.6  c0,0.3,0.2,0.5,0.5,0.6c2.5,0.7,4.9,1.7,7.1,3c0.2,0.1,0.5,0.1,0.7-0.1l1.1-1.1c0,0,0,0,0,0l3.4-3.4c0.2-0.2,0.6-0.2,0.9,0l8.2,8.2  c0.2,0.2,0.2,0.6,0,0.9l-1.9,1.9c0,0,0,0,0,0l-2.6,2.6c-0.2,0.2-0.2,0.5-0.1,0.7c1.3,2.2,2.3,4.6,3,7.1c0.1,0.3,0.3,0.5,0.6,0.5  h1.6c0,0,0,0,0,0h4.8c0.3,0,0.6,0.3,0.6,0.6v11.6c0,0.3-0.3,0.6-0.6,0.6h-4.8c0,0,0,0,0,0h-1.6c-0.3,0-0.5,0.2-0.6,0.5  c-0.7,2.5-1.7,4.9-3,7.1c-0.1,0.2-0.1,0.5,0.1,0.7l1.1,1.1c0,0,0,0,0,0l3.4,3.4c0.2,0.2,0.2,0.6,0,0.9L80.4,81.7z"></path>	<path class="st1" d="M106.5,26.6c-2.3-4-5.1-7.7-8.5-11c-4.9-4.9-10.6-8.8-17-11.4C74.5,1.4,67.5,0,60.3,0S46.1,1.4,39.5,4.2  c-6.4,2.7-12.1,6.5-17,11.4c-4.9,4.9-8.8,10.6-11.4,17c-1.3,3.1-2.3,6.4-3,9.7c-4.5,0.5-8,4.3-8,8.9c0,4.9,4,9,9,9s9-4,9-9  c0-3.8-2.4-7.1-5.7-8.4C17,20.7,36.8,4.2,60.3,4.2c18.2,0,34,9.9,42.6,24.5c0.6,1,1.8,1.3,2.7,0.8C106.7,29,107.1,27.7,106.5,26.6z   M13.8,51.2c0,2.6-2.2,4.8-4.8,4.8s-4.8-2.2-4.8-4.8s2.2-4.8,4.8-4.8S13.8,48.5,13.8,51.2z"></path>	<path class="st1" d="M120,51.2c0-4.9-4-9-9-9c-4.9,0-9,4-9,9c0,4.3,3,7.8,7,8.7c-3.2,24.1-23.9,42.7-48.8,42.7  c-18.1,0-34-9.8-42.5-24.4c-0.6-1-1.7-1.3-2.7-0.8l0,0c-1.1,0.5-1.5,1.9-0.9,2.9c2.3,4,5.1,7.6,8.4,10.9c4.9,4.9,10.6,8.8,17,11.4  c6.6,2.8,13.6,4.2,20.8,4.2s14.2-1.4,20.8-4.2c6.4-2.7,12.1-6.5,17-11.4c4.9-4.9,8.8-10.6,11.4-17c1.9-4.6,3.2-9.4,3.8-14.3  C117.1,58.9,120,55.3,120,51.2z M111,56c-2.6,0-4.8-2.2-4.8-4.8s2.2-4.8,4.8-4.8c2.6,0,4.8,2.2,4.8,4.8S113.7,56,111,56z"></path>	<g>		<path class="st1" d="M53.5,55.8c0,0.2-0.1,0.9,0.2,1.5c0.3,0.7,1.1,0.7,1.9,0.8h9.5c1.1-0.1,1.3-0.3,1.6-0.7   c0.1-0.1,0.2-0.5,0.2-0.9c0-0.4-0.2-0.8-0.3-0.9c-0.4-0.7-1-0.7-1.8-0.8c-1.9-0.1-3.8-0.1-5.6-0.1c-1.1,0-2.1,0-3.2,0   c-1,0-2-0.1-2.9-0.2c-0.2,0-0.5-0.1-0.7-0.1c-0.3-0.1-1.4-0.3-2.1-1.2c-0.9-1.1-0.8-3-0.8-3.2c0-0.4,0-0.8,0.1-1.1   c0.2-1.4,0.6-2,1.1-2.5c1-1,2.3-1.1,3.7-1.2h4.8v-1.9h2.2V45h0.9c1.1,0,2.3,0,3.4,0l1.9,0.1c0.9,0.2,1.7,0.3,2.4,1   c0.8,0.8,0.9,1.7,0.9,3.8l-4.2,0c0-0.4-0.1-0.7-0.4-1c-0.4-0.4-1-0.4-1.6-0.4h-8.7c-0.6,0-1.2,0-1.6,0.5c-0.2,0.3-0.3,0.5-0.3,0.9   c0,0.1,0,0.4,0.2,0.7c0.3,0.5,0.8,0.6,1.4,0.6l9.8,0.1c2.4,0.1,3.6,0.2,4.7,0.9c0.5,0.3,0.7,0.7,0.8,0.9c0.6,1,0.6,2.7,0.6,2.9   c0,0.2,0,0.8-0.1,1.4c-0.2,1.7-0.8,2.4-1.5,2.9c-0.9,0.7-2,0.8-3.1,1c-1,0.1-2.1,0.1-3.1,0.2c-0.8,0-1.5,0-2.3,0v2.1h-2.2v-2.1   c-1,0-1.9,0-2.8,0c-1,0-1.9-0.1-2.9-0.2c-1-0.2-1.4-0.3-1.9-0.5c-2.2-0.9-2.2-3.2-2.2-3.9c0-0.4,0-0.8,0.1-1.2H53.5z"></path>	</g>	<circle class="st1" cx="11.4" cy="68.2" r="2.4"></circle>	<circle class="st1" cx="108.4" cy="35.9" r="2.4"></circle></g></svg>